# Blender 3.4.1
# www.blender.org
mtllib llama.mtl
o mesh1
v -0.055418 0.081297 4.194845
v -0.210294 -0.124514 4.194845
v -0.055418 0.081297 4.822050
v -0.055418 0.081298 4.002935
v 0.099459 0.287109 4.194845
v -0.259604 0.238333 4.194845
v -0.053793 0.083457 4.194845
v -0.053793 0.083457 4.822050
v -0.053793 0.083457 4.002935
v 0.152019 -0.071419 4.194845
v 0.150394 -0.073579 4.194845
v -0.055418 0.081297 4.194845
v -0.055418 0.081297 4.822050
v -0.055418 0.081298 4.002935
v -0.261229 0.236173 4.194845
v -0.060401 0.085048 4.194845
v 0.094475 0.290859 4.194845
v -0.060401 0.085048 4.822050
v -0.060401 0.085048 4.002935
v -0.215278 -0.120763 4.194845
vn 0.7990 -0.6013 -0.0000
vn 0.6013 0.7990 -0.0000
vn -0.6013 -0.7990 -0.0000
vn -0.7990 0.6013 -0.0000
vt 0.502441 1.235840
vt 0.147339 1.235840
vt 0.502441 1.998010
vt 0.502441 1.002440
vt 0.847656 1.235840
vt 0.147339 1.235840
vt 0.502441 1.235840
vt 0.502441 1.998010
vt 0.502441 1.002440
vt 0.847656 1.235840
vt 0.147339 1.235840
vt 0.502441 1.235840
vt 0.502441 1.998010
vt 0.502441 1.002440
vt 0.847656 1.235840
vt 0.502441 1.235840
vt 0.147339 1.235840
vt 0.502441 1.998010
vt 0.502441 1.002440
vt 0.847656 1.235840
s 0
usemtl material_1
f 3/3/1 2/2/1 1/1/1
f 4/4/1 1/1/1 2/2/1
f 1/1/1 4/4/1 5/5/1
f 5/5/1 3/3/1 1/1/1
f 8/8/2 7/7/2 6/6/2
f 9/9/2 6/6/2 7/7/2
f 10/10/2 7/7/2 8/8/2
f 10/10/2 9/9/2 7/7/2
f 13/13/3 12/12/3 11/11/3
f 14/14/3 11/11/3 12/12/3
f 15/15/3 14/14/3 12/12/3
f 15/15/3 12/12/3 13/13/3
f 18/18/4 17/17/4 16/16/4
f 19/19/4 16/16/4 17/17/4
f 16/16/4 19/19/4 20/20/4
f 20/20/4 18/18/4 16/16/4
