# Blender 3.2.0
# www.blender.org
mtllib marcoPuerta.mtl
o Plane
v 0.000000 1.000000 -1.000000
v 0.200000 1.000000 -1.000000
v 0.000000 -1.000000 -1.000000
v 0.200000 -1.000000 -1.000000
v 0.000000 1.000000 -3.000000
v 0.200000 1.000000 -3.000000
vn -0.0000 -0.0000 -1.0000
vn -0.0000 -1.0000 -0.0000
vt 0.000000 0.000000
vt 1.000000 0.000000
vt 0.000000 1.000000
vt 1.000000 1.000000
vt 0.000000 0.000000
vt 1.000000 0.000000
s 0
f 2/2/1 3/3/1 1/1/1
f 1/1/2 6/6/2 2/2/2
f 2/2/1 4/4/1 3/3/1
f 1/1/2 5/5/2 6/6/2
o Plane.001
v 0.200000 1.000000 -3.000000
v 0.000000 1.000000 -3.000000
v 0.200000 -1.000000 -3.000000
v 0.000000 -1.000000 -3.000000
vn -0.0000 -0.0000 1.0000
vt 0.000000 0.000000
vt 1.000000 0.000000
vt 0.000000 1.000000
vt 1.000000 1.000000
s 0
f 8/8/3 9/9/3 7/7/3
f 8/8/3 10/10/3 9/9/3
