# Blender 3.5.0
# www.blender.org
mtllib notebook.mtl
o PartsA__M_Laptop
v -0.044905 0.003618 0.049557
v 0.044905 0.003618 0.049557
v -0.044905 0.009604 0.049557
v 0.044905 0.009604 0.049557
v -0.044905 0.009604 0.049557
v 0.044905 0.009604 0.049557
v -0.044905 0.009604 0.042635
v 0.044905 0.009604 0.042635
v -0.044905 0.009604 0.042635
v 0.044905 0.009604 0.042635
v -0.044905 0.000312 0.042635
v 0.044905 0.000312 0.042635
v -0.044905 0.000312 0.042635
v 0.044905 0.000312 0.042635
v -0.044905 0.003618 0.049557
v 0.044905 0.003618 0.049557
v 0.044905 0.000312 0.042635
v 0.044905 0.009604 0.042635
v 0.044905 0.003618 0.049557
v 0.044905 0.009604 0.049557
v -0.044905 0.000312 0.042635
v -0.044905 0.003618 0.049557
v -0.044905 0.009604 0.042635
v -0.044905 0.009604 0.049557
v -0.065637 0.003434 -0.048978
v -0.065652 0.008514 -0.048978
v 0.065637 0.003434 -0.048978
v 0.065652 0.008514 -0.048978
v 0.069514 0.003434 -0.047601
v 0.069518 0.008514 -0.047605
v 0.071120 0.008514 -0.044291
v 0.071120 0.003434 -0.044279
v 0.071120 0.008514 0.044291
v 0.071120 0.003434 0.044279
v 0.069514 0.003434 0.047601
v 0.069518 0.008514 0.047605
v 0.065652 0.008514 0.048978
v 0.065637 0.003434 0.048978
v -0.065406 0.090745 0.096862
v -0.065406 0.091755 0.094992
v -0.069446 0.090494 0.094310
v -0.069446 0.089483 0.096180
v -0.071120 0.087448 0.092664
v -0.071120 0.086437 0.094534
v -0.071120 0.008888 0.052636
v -0.071120 0.009898 0.050766
v -0.069446 0.006852 0.049120
v -0.069446 0.005842 0.050990
v -0.065406 0.005591 0.048438
v -0.065406 0.004580 0.050309
v 0.065406 0.004580 0.050309
v 0.065406 0.005591 0.048438
v 0.071120 0.087448 0.092664
v 0.071120 0.009898 0.050766
v 0.069446 0.090494 0.094310
v 0.069446 0.006852 0.049120
v 0.065406 0.091755 0.094992
v 0.065406 0.005591 0.048438
v 0.062136 0.017363 0.054580
v 0.062136 0.083608 0.090323
v -0.060630 0.017363 0.054580
v -0.060630 0.083608 0.090323
v -0.065406 0.005591 0.048438
v -0.065406 0.091755 0.094992
v -0.069446 0.090494 0.094310
v -0.069446 0.006852 0.049120
v -0.071120 0.087448 0.092664
v -0.071120 0.009898 0.050766
v -0.069518 0.008514 -0.047605
v -0.071120 0.008514 -0.044291
v -0.071120 0.008514 0.044291
v -0.069518 0.008514 0.047605
v -0.065652 0.008514 -0.048978
v -0.065652 0.008514 0.048978
v 0.065652 0.008514 -0.048978
v 0.065652 0.008514 0.048978
v 0.069518 0.008514 0.047605
v 0.069518 0.008514 -0.047605
v 0.071120 0.008514 -0.044291
v 0.071120 0.008514 0.044291
v 0.065406 0.005591 0.048438
v 0.069446 0.006852 0.049120
v 0.065406 0.004580 0.050309
v 0.069446 0.005842 0.050990
v 0.071120 0.009898 0.050766
v 0.071120 0.008888 0.052636
v 0.071120 0.086437 0.094534
v 0.071120 0.087448 0.092664
v 0.069446 0.090494 0.094310
v 0.069446 0.089483 0.096180
v 0.065406 0.091755 0.094992
v 0.065406 0.090745 0.096862
v -0.065406 0.090745 0.096862
v -0.065406 0.091755 0.094992
v -0.069446 0.089483 0.096180
v -0.071120 0.086437 0.094534
v -0.071120 0.008888 0.052636
v -0.069446 0.005842 0.050990
v -0.065406 0.090745 0.096862
v -0.065406 0.004580 0.050309
v 0.065406 0.090745 0.096862
v 0.065406 0.004580 0.050309
v 0.069446 0.005842 0.050990
v 0.069446 0.089483 0.096180
v 0.071120 0.086437 0.094534
v 0.071120 0.008888 0.052636
v -0.065652 0.008514 -0.048978
v -0.065637 0.003434 -0.048978
v -0.069514 0.003434 -0.047601
v -0.069518 0.008514 -0.047605
v -0.071120 0.008514 -0.044291
v -0.071120 0.003434 -0.044279
v -0.071120 0.003434 0.044279
v -0.071120 0.008514 0.044291
v -0.069514 0.003434 0.047601
v -0.069518 0.008514 0.047605
v -0.065652 0.008514 0.048978
v -0.065637 0.003434 0.048978
v 0.065637 0.003434 0.048978
v 0.065652 0.008514 0.048978
v -0.069514 0.003434 0.047601
v -0.071120 0.003434 0.044279
v -0.061053 -0.000030 0.041996
v -0.065637 0.003434 0.048978
v -0.071120 0.003434 -0.044279
v 0.061053 -0.000030 0.041996
v 0.065637 0.003434 0.048978
v 0.069514 0.003434 0.047601
v 0.071120 0.003434 0.044279
v -0.061053 -0.000030 -0.041996
v -0.069514 0.003434 -0.047601
v -0.065637 0.003434 -0.048978
v 0.065637 0.003434 -0.048978
v 0.061053 -0.000030 -0.041996
v 0.071120 0.003434 -0.044279
v 0.069514 0.003434 -0.047601
v -0.065406 0.090745 0.096862
v 0.065406 0.091755 0.094992
v -0.065406 0.091755 0.094992
v 0.069446 0.006852 0.049120
v 0.065406 0.091755 0.094992
v 0.069446 0.089483 0.096180
v -0.069446 0.089483 0.096180
v -0.065406 0.090745 0.096862
v -0.065406 0.091755 0.094992
v -0.071120 0.086437 0.094534
v -0.071120 0.009898 0.050766
v -0.069446 0.006852 0.049120
v -0.071120 0.009898 0.050766
v -0.071120 0.086437 0.094534
v -0.069446 0.089483 0.096180
v 0.069446 0.006852 0.049120
v 0.069446 0.089483 0.096180
v 0.071120 0.086437 0.094534
v 0.065406 0.005591 0.048438
v 0.065406 0.091755 0.094992
v 0.062136 0.017363 0.054580
v -0.065406 0.005591 0.048438
v 0.062136 0.083608 0.090323
v -0.060630 0.083608 0.090323
v -0.060630 0.017363 0.054580
v -0.065406 0.091755 0.094992
v -0.069446 0.006852 0.049120
v -0.069446 0.089483 0.096180
v -0.071120 0.009898 0.050766
v -0.044905 0.003618 0.049557
v 0.044905 0.003618 0.049557
v -0.044905 0.009604 0.049557
v 0.044905 0.009604 0.049557
v -0.044905 0.009604 0.049557
v 0.044905 0.009604 0.049557
v -0.044905 0.009604 0.042635
v 0.044905 0.009604 0.042635
v -0.044905 0.009604 0.042635
v 0.044905 0.009604 0.042635
v -0.044905 0.000312 0.042635
v 0.044905 0.000312 0.042635
v -0.044905 0.000312 0.042635
v 0.044905 0.000312 0.042635
v -0.044905 0.003618 0.049557
v 0.044905 0.003618 0.049557
v 0.044905 0.000312 0.042635
v 0.044905 0.009604 0.042635
v 0.044905 0.003618 0.049557
v 0.044905 0.009604 0.049557
v -0.044905 0.000312 0.042635
v -0.044905 0.003618 0.049557
v -0.044905 0.009604 0.042635
v -0.044905 0.009604 0.049557
v 0.065652 0.008514 0.048978
v 0.065637 0.003434 0.048978
v 0.069514 0.003434 0.047601
v 0.071120 0.008514 0.044291
v 0.071120 0.003434 0.044279
v 0.071120 0.008514 -0.044291
v 0.069514 0.003434 -0.047601
v 0.065652 0.008514 -0.048978
v 0.065637 0.003434 -0.048978
v -0.065652 0.008514 -0.048978
v -0.065637 0.003434 -0.048978
v -0.071120 0.008514 -0.044291
v -0.071120 0.008514 0.044291
v -0.065652 0.008514 0.048978
v -0.065652 0.008514 -0.048978
v 0.065652 0.008514 0.048978
v 0.065652 0.008514 -0.048978
v 0.071120 0.008514 -0.044291
v 0.071120 0.008514 0.044291
v 0.071120 0.086437 0.094534
v 0.071120 0.008888 0.052636
v 0.069446 0.006852 0.049120
v 0.065406 0.004580 0.050309
v 0.065406 0.005591 0.048438
v 0.071120 0.008888 0.052636
v 0.071120 0.086437 0.094534
v 0.069446 0.089483 0.096180
v 0.065406 0.004580 0.050309
v 0.065406 0.091755 0.094992
v -0.065406 0.090745 0.096862
v -0.065406 0.004580 0.050309
v -0.069446 0.089483 0.096180
v -0.069446 0.006852 0.049120
v -0.071120 0.086437 0.094534
v -0.069446 0.006852 0.049120
v -0.065406 0.005591 0.048438
v -0.065406 0.004580 0.050309
v 0.065406 0.005591 0.048438
v 0.065406 0.004580 0.050309
v -0.065637 0.003434 0.048978
v 0.065637 0.003434 0.048978
v 0.065652 0.008514 0.048978
v -0.065652 0.008514 0.048978
v -0.069514 0.003434 0.047601
v -0.071120 0.008514 0.044291
v -0.071120 0.003434 -0.044279
v -0.071120 0.008514 -0.044291
v -0.069514 0.003434 -0.047601
v -0.065652 0.008514 -0.048978
v -0.065637 0.003434 -0.048978
v 0.069514 0.003434 0.047601
v 0.065637 0.003434 0.048978
v 0.071120 0.003434 0.044279
v -0.061053 -0.000030 0.041996
v -0.065637 0.003434 0.048978
v -0.069514 0.003434 0.047601
v -0.071120 0.003434 -0.044279
v 0.061053 -0.000030 -0.041996
v 0.069514 0.003434 -0.047601
v 0.065637 0.003434 -0.048978
v -0.065637 0.003434 -0.048978
v -0.069514 0.003434 -0.047601
v 0.065652 0.008514 -0.048978
v 0.069514 0.003434 -0.047601
v -0.065652 0.008514 -0.048978
v -0.065406 0.004580 0.050309
v 0.065406 0.005591 0.048438
v 0.065406 0.004580 0.050309
v -0.065406 0.090745 0.096862
v 0.065406 0.091755 0.094992
v -0.065406 0.091755 0.094992
v 0.069446 0.006852 0.049120
v 0.065406 0.091755 0.094992
v 0.069446 0.089483 0.096180
v -0.069446 0.089483 0.096180
v -0.065406 0.090745 0.096862
v -0.065406 0.091755 0.094992
v -0.069446 0.006852 0.049120
v -0.071120 0.009898 0.050766
v -0.069446 0.089483 0.096180
v 0.069514 0.003434 -0.047601
v -0.065637 0.003434 -0.048978
v -0.065652 0.008514 -0.048978
v 0.065652 0.008514 -0.048978
v 0.071120 0.008514 -0.044291
v 0.069514 0.003434 0.047601
v 0.071120 0.008514 0.044291
v 0.065652 0.008514 0.048978
v 0.065637 0.003434 0.048978
v -0.044905 0.003618 0.049557
v 0.044905 0.003618 0.049557
v -0.044905 0.009604 0.049557
v 0.044905 0.009604 0.049557
v -0.044905 0.009604 0.049557
v 0.044905 0.009604 0.049557
v -0.044905 0.009604 0.042635
v 0.044905 0.009604 0.042635
v -0.044905 0.009604 0.042635
v 0.044905 0.009604 0.042635
v -0.044905 0.000312 0.042635
v 0.044905 0.000312 0.042635
v -0.044905 0.000312 0.042635
v 0.044905 0.000312 0.042635
v -0.044905 0.003618 0.049557
v 0.044905 0.003618 0.049557
v 0.044905 0.000312 0.042635
v 0.044905 0.009604 0.042635
v 0.044905 0.003618 0.049557
v 0.044905 0.009604 0.049557
v -0.044905 0.000312 0.042635
v -0.044905 0.003618 0.049557
v -0.044905 0.009604 0.042635
v -0.044905 0.009604 0.049557
v -0.071120 0.008514 -0.044291
v -0.071120 0.008514 0.044291
v -0.065652 0.008514 0.048978
v -0.065652 0.008514 -0.048978
v 0.065652 0.008514 0.048978
v 0.065652 0.008514 -0.048978
v 0.071120 0.008514 -0.044291
v 0.071120 0.008514 0.044291
v 0.069446 0.089483 0.096180
v 0.071120 0.008888 0.052636
v 0.069446 0.006852 0.049120
v 0.065406 0.004580 0.050309
v 0.065406 0.005591 0.048438
v -0.065637 0.003434 0.048978
v 0.065637 0.003434 0.048978
v 0.065652 0.008514 0.048978
v -0.065652 0.008514 0.048978
v -0.069514 0.003434 0.047601
v -0.071120 0.008514 0.044291
v -0.069514 0.003434 -0.047601
v -0.071120 0.008514 -0.044291
v -0.065652 0.008514 -0.048978
v -0.065637 0.003434 -0.048978
v -0.069446 0.089483 0.096180
v -0.071120 0.009898 0.050766
v -0.069446 0.006852 0.049120
v -0.065406 0.004580 0.050309
v -0.065406 0.090745 0.096862
v 0.065406 0.004580 0.050309
v 0.065406 0.091755 0.094992
v 0.069446 0.089483 0.096180
v 0.071120 0.008888 0.052636
v -0.065637 0.003434 0.048978
v 0.069514 0.003434 0.047601
v 0.065637 0.003434 0.048978
v 0.069514 0.003434 -0.047601
v -0.069514 0.003434 -0.047601
v -0.069514 0.003434 0.047601
v -0.065637 0.003434 -0.048978
v -0.069446 0.006852 0.049120
v -0.069446 0.089483 0.096180
v -0.065406 0.091755 0.094992
v -0.065406 0.004580 0.050309
v -0.060630 0.017363 0.054580
v -0.060630 0.083608 0.090323
v 0.062136 0.017363 0.054580
v 0.065406 0.091755 0.094992
v 0.065406 0.005591 0.048438
v 0.069446 0.006852 0.049120
v 0.062136 0.083608 0.090323
vn -0.0000 -0.0000 1.0000
vn -0.0000 1.0000 -0.0000
vn -0.0000 -0.0000 -1.0000
vn -0.0000 -0.9024 0.4309
vn -0.0000 -0.9026 0.4306
vn 1.0000 -0.0000 -0.0000
vn -1.0000 -0.0000 -0.0000
vn -0.0098 -0.0000 -1.0000
vn 0.0098 -0.0005 -1.0000
vn 0.0098 -0.0000 -1.0000
vn 0.6513 -0.0020 -0.7588
vn 0.9998 -0.0006 -0.0176
vn 0.9998 -0.0000 -0.0176
vn 0.9998 -0.0000 0.0176
vn 0.9998 -0.0006 0.0176
vn 0.6513 -0.0020 0.7588
vn 0.0098 -0.0000 1.0000
vn -0.0098 0.8799 0.4750
vn -0.6501 0.6683 0.3615
vn -0.6501 0.6685 0.3612
vn -0.9998 0.0155 0.0084
vn -0.9998 0.0154 0.0085
vn -0.9998 -0.0155 -0.0084
vn -0.9998 -0.0154 -0.0086
vn -0.6501 -0.6685 -0.3612
vn -0.6501 -0.6683 -0.3615
vn -0.0098 -0.8798 -0.4753
vn -0.0098 -0.8799 -0.4750
vn 0.0098 -0.8799 -0.4750
vn 0.0098 -0.8800 -0.4750
vn -0.0000 0.4749 -0.8800
vn -0.0000 0.4750 -0.8800
vn 0.0039 0.4904 -0.8715
vn 0.0020 0.4646 -0.8855
vn 0.0118 0.4663 -0.8845
vn 0.0059 0.4801 -0.8772
vn -0.0059 0.4715 -0.8818
vn -0.0059 0.4801 -0.8772
vn -0.0000 0.4747 -0.8801
vn -0.0000 0.4753 -0.8798
vn -0.0000 0.4748 -0.8801
vn 0.6501 -0.6683 -0.3614
vn 0.6501 -0.6685 -0.3612
vn 0.9998 -0.0155 -0.0084
vn 0.9998 -0.0154 -0.0085
vn 0.9998 0.0155 0.0084
vn 0.9998 0.0154 0.0086
vn 0.6501 0.6685 0.3612
vn 0.6501 0.6683 0.3615
vn 0.0098 0.8798 0.4753
vn 0.0098 0.8799 0.4750
vn -0.0000 -0.4749 0.8800
vn -0.0000 -0.4750 0.8800
vn -0.0000 -0.4753 0.8798
vn -0.0000 -0.4748 0.8801
vn -0.6513 -0.0020 -0.7588
vn -0.9998 -0.0000 -0.0176
vn -0.9998 -0.0006 -0.0176
vn -0.9998 -0.0000 0.0176
vn -0.9998 -0.0006 0.0176
vn -0.6513 -0.0020 0.7588
vn -0.0098 -0.0000 1.0000
vn -0.0098 -0.0005 1.0000
vn -0.2328 -0.9447 0.2308
vn -0.3250 -0.9457 0.0039
vn -0.0274 -0.9985 0.0470
vn -0.0039 -0.8968 0.4425
vn -0.3250 -0.9457 -0.0039
vn 0.0274 -0.9985 0.0470
vn 0.0039 -0.8968 0.4425
vn 0.2328 -0.9447 0.2308
vn 0.3250 -0.9457 0.0039
vn -0.0274 -0.9985 -0.0470
vn -0.2328 -0.9447 -0.2308
vn -0.0039 -0.8968 -0.4425
vn 0.0039 -0.8968 -0.4425
vn 0.0274 -0.9985 -0.0470
vn 0.3250 -0.9457 -0.0039
vn 0.2328 -0.9447 -0.2308
vt 0.350988 0.032135
vt 0.633600 0.032135
vt 0.350988 0.054383
vt 0.633600 0.054383
vt 0.019120 0.076402
vt 0.315557 0.076402
vt 0.019120 0.100908
vt 0.315557 0.100908
vt 0.645838 0.102556
vt 0.338766 0.102556
vt 0.645838 0.070802
vt 0.338766 0.070802
vt 0.314275 0.058930
vt 0.020386 0.058930
vt 0.314275 0.031540
vt 0.020386 0.031540
vt 0.760998 0.047440
vt 0.760998 0.079194
vt 0.737331 0.058015
vt 0.737331 0.079194
vt 0.684382 0.046052
vt 0.708385 0.056611
vt 0.684382 0.079194
vt 0.708385 0.079194
vt 0.825284 0.164797
vt 0.825269 0.182193
vt 0.375784 0.164797
vt 0.375662 0.182193
vt 0.361669 0.164797
vt 0.361593 0.182193
vt 0.348928 0.182193
vt 0.348974 0.164797
vt 0.043565 0.182193
vt 0.043702 0.164797
vt 0.030976 0.164797
vt 0.030884 0.182193
vt 0.016739 0.182193
vt 0.016739 0.164797
vt 0.013687 0.228824
vt 0.013764 0.220523
vt 0.030152 0.220691
vt 0.030091 0.229038
vt 0.044785 0.220737
vt 0.044755 0.229069
vt 0.354818 0.228946
vt 0.354864 0.220615
vt 0.369482 0.220645
vt 0.369406 0.229023
vt 0.385748 0.220829
vt 0.385779 0.228870
vt 0.730648 0.228763
vt 0.730632 0.220859
vt 0.008392 0.965576
vt 0.008362 0.658274
vt 0.014343 0.977646
vt 0.014313 0.646204
vt 0.028626 0.982300
vt 0.028626 0.641581
vt 0.039689 0.687785
vt 0.039689 0.949599
vt 0.449943 0.687800
vt 0.449897 0.949584
vt 0.466026 0.641581
vt 0.466041 0.982300
vt 0.480339 0.977661
vt 0.480323 0.646235
vt 0.486290 0.965606
vt 0.486275 0.658289
vt 0.982330 0.649180
vt 0.987808 0.660517
vt 0.987808 0.963363
vt 0.982330 0.974685
vt 0.969116 0.644495
vt 0.969116 0.979385
vt 0.520211 0.644480
vt 0.520211 0.979385
vt 0.506996 0.974701
vt 0.506996 0.649180
vt 0.501518 0.660502
vt 0.501518 0.963363
vt 0.683543 0.251102
vt 0.664897 0.251072
vt 0.683513 0.241794
vt 0.664973 0.241947
vt 0.648371 0.251041
vt 0.648325 0.242039
vt 0.400046 0.242222
vt 0.400015 0.251225
vt 0.383352 0.251072
vt 0.383642 0.241901
vt 0.364950 0.250614
vt 0.364904 0.242054
vt 0.017350 0.242268
vt 0.017365 0.250797
vt 0.014160 0.615625
vt 0.008225 0.603586
vt 0.008209 0.296269
vt 0.014145 0.284245
vt 0.028443 0.620172
vt 0.028428 0.279698
vt 0.466224 0.620172
vt 0.466239 0.279698
vt 0.480522 0.284245
vt 0.480491 0.615625
vt 0.486442 0.603601
vt 0.486458 0.296269
vt 0.016739 0.151186
vt 0.016739 0.133822
vt 0.030854 0.133822
vt 0.030808 0.151186
vt 0.043305 0.151186
vt 0.043381 0.133822
vt 0.343023 0.133822
vt 0.343023 0.151186
vt 0.355550 0.133822
vt 0.355505 0.151186
vt 0.369497 0.151186
vt 0.369574 0.133822
vt 0.818189 0.133822
vt 0.818219 0.151186
vt 0.985748 0.287160
vt 0.991791 0.299657
vt 0.955474 0.307881
vt 0.971450 0.281300
vt 0.991592 0.603220
vt 0.538064 0.307637
vt 0.522148 0.281132
vt 0.507820 0.286931
vt 0.501747 0.299397
vt 0.955276 0.594934
vt 0.985504 0.615656
vt 0.971176 0.621439
vt 0.522011 0.621195
vt 0.537926 0.594705
vt 0.501625 0.602930
vt 0.507683 0.615412
s 0
usemtl M_Laptop
f 1/1/1 2/2/1 3/3/1
f 2/2/1 4/4/1 3/3/1
f 5/5/2 6/6/2 7/7/2
f 6/6/2 8/8/2 7/7/2
f 9/9/3 10/10/3 11/11/3
f 10/10/3 12/12/3 11/11/3
f 13/13/4 14/14/4 15/15/4
f 14/14/5 16/16/5 15/15/5
f 17/17/6 18/18/6 19/19/6
f 18/18/6 20/20/6 19/19/6
f 21/21/7 22/22/7 23/23/7
f 22/22/7 24/24/7 23/23/7
s 1
f 25/25/8 26/26/8 27/27/9
f 26/26/8 28/28/10 27/27/9
f 29/29/11 27/27/9 28/28/10
f 30/30/11 29/29/11 28/28/10
f 30/30/11 31/31/12 29/29/11
f 31/31/12 32/32/13 29/29/11
f 32/32/13 31/31/12 33/33/14
f 34/34/15 32/32/13 33/33/14
f 34/34/15 33/33/14 35/35/16
f 33/33/14 36/36/16 35/35/16
f 35/35/16 36/36/16 37/37/17
f 38/38/17 35/35/16 37/37/17
f 39/39/18 40/40/18 41/41/19
f 42/42/20 39/39/18 41/41/19
f 42/42/20 41/41/19 43/43/21
f 44/44/22 42/42/20 43/43/21
f 44/44/22 43/43/21 45/45/23
f 43/43/21 46/46/24 45/45/23
f 46/46/24 47/47/25 45/45/23
f 47/47/25 48/48/26 45/45/23
f 47/47/25 49/49/27 48/48/26
f 49/49/27 50/50/28 48/48/26
f 50/50/28 49/49/27 51/51/29
f 49/49/27 52/52/30 51/51/29
s 0
f 53/53/31 54/54/32 55/55/32
f 54/54/32 56/56/31 55/55/32
s 1
f 55/55/31 56/56/31 57/57/33
f 56/56/31 58/58/34 57/57/33
f 58/58/34 59/59/35 57/57/33
f 59/59/35 60/60/36 57/57/33
f 61/61/37 59/59/35 58/58/34
f 60/60/36 62/62/38 57/57/33
f 63/63/34 61/61/37 58/58/34
f 62/62/38 64/64/33 57/57/33
f 62/62/38 61/61/37 64/64/33
f 61/61/37 63/63/34 64/64/33
f 64/64/33 63/63/34 65/65/32
f 63/63/34 66/66/39 65/65/32
s 0
f 65/65/40 66/66/32 67/67/32
f 66/66/41 68/68/31 67/67/31
f 69/69/2 70/70/2 71/71/2
f 72/72/2 69/69/2 71/71/2
f 73/73/2 69/69/2 72/72/2
f 74/74/2 73/73/2 72/72/2
f 75/75/2 73/73/2 74/74/2
f 76/76/2 75/75/2 74/74/2
f 76/76/2 77/77/2 75/75/2
f 77/77/2 78/78/2 75/75/2
f 78/78/2 77/77/2 79/79/2
f 77/77/2 80/80/2 79/79/2
s 1
f 81/81/29 82/82/42 83/83/30
f 82/82/42 84/84/43 83/83/30
f 82/82/42 85/85/44 84/84/43
f 85/85/44 86/86/45 84/84/43
f 86/86/45 85/85/44 87/87/46
f 85/85/44 88/88/47 87/87/46
f 87/87/46 88/88/47 89/89/48
f 90/90/49 87/87/46 89/89/48
f 90/90/49 89/89/48 91/91/50
f 92/92/51 90/90/49 91/91/50
f 93/93/18 92/92/51 91/91/50
f 94/94/18 93/93/18 91/91/50
s 0
f 95/95/52 96/96/52 97/97/53
f 98/98/54 95/95/54 97/97/54
f 99/99/52 95/95/52 98/98/52
f 100/100/54 99/99/54 98/98/54
f 101/101/53 99/99/54 100/100/54
f 102/102/54 101/101/53 100/100/54
f 101/101/52 102/102/54 103/103/53
f 104/104/55 101/101/55 103/103/52
f 104/104/53 103/103/54 105/105/54
f 103/103/53 106/106/53 105/105/52
s 1
f 107/107/8 108/108/8 109/109/56
f 110/110/56 107/107/8 109/109/56
f 110/110/56 109/109/56 111/111/57
f 109/109/56 112/112/58 111/111/57
f 112/112/58 113/113/59 111/111/57
f 113/113/59 114/114/60 111/111/57
f 113/113/59 115/115/61 114/114/60
f 115/115/61 116/116/61 114/114/60
f 117/117/62 116/116/61 115/115/61
f 118/118/63 117/117/62 115/115/61
f 118/118/63 119/119/17 117/117/62
f 119/119/17 120/120/17 117/117/62
f 121/121/64 122/122/65 123/123/66
f 124/124/67 121/121/64 123/123/66
f 122/122/65 125/125/68 123/123/66
f 124/124/67 123/123/66 126/126/69
f 127/127/70 124/124/67 126/126/69
f 128/128/71 127/127/70 126/126/69
f 129/129/72 128/128/71 126/126/69
f 125/125/68 130/130/73 123/123/66
f 123/123/66 130/130/73 126/126/69
f 125/125/68 131/131/74 130/130/73
f 131/131/74 132/132/75 130/130/73
f 132/132/75 133/133/76 130/130/73
f 129/129/72 126/126/69 134/134/77
f 130/130/73 134/134/77 126/126/69
f 133/133/76 134/134/77 130/130/73
f 135/135/78 129/129/72 134/134/77
f 133/133/76 136/136/79 134/134/77
f 136/136/79 135/135/78 134/134/77
o PartsB__M_Display
v -0.060630 0.083608 0.090323
v 0.025891 0.028699 0.060696
v -0.060630 0.017363 0.054580
v 0.062136 0.083608 0.090323
v 0.025891 0.024360 0.058355
v 0.053601 0.028699 0.060696
v 0.062136 0.017363 0.054580
v 0.053601 0.024360 0.058355
v 0.062136 0.017363 0.054580
v 0.053601 0.024360 0.058355
v 0.053601 0.028699 0.060696
v 0.025891 0.024360 0.058355
v 0.062136 0.083608 0.090323
v -0.060630 0.017363 0.054580
v 0.025891 0.028699 0.060696
v -0.060630 0.083608 0.090323
v 0.062136 0.083608 0.090323
v 0.062136 0.017363 0.054580
v 0.053601 0.024360 0.058355
v 0.025891 0.024360 0.058355
v -0.060630 0.017363 0.054580
v -0.060630 0.083608 0.090323
vn -0.0059 0.4802 -0.8772
vn -0.0000 0.4748 -0.8801
vn -0.0059 0.4715 -0.8818
vn 0.0058 0.4801 -0.8772
vn 0.0117 0.4663 -0.8845
vt 1.000000 0.931289
vt 0.295232 0.217700
vt 1.000000 0.070359
vt 0.000000 0.931289
vt 0.295232 0.161303
vt 0.069520 0.217700
vt 0.000000 0.070359
vt 0.069520 0.161303
s 1
usemtl M_Display
f 353/137/80 354/138/81 355/139/82
f 354/138/81 353/137/80 356/140/83
f 354/138/81 357/141/81 355/139/82
f 358/142/81 354/138/81 356/140/83
f 355/139/82 357/141/81 359/143/84
f 358/142/81 356/140/83 359/143/84
f 357/141/81 360/144/81 359/143/84
f 360/144/81 358/142/81 359/143/84
o PartsB__M_DisplayLoop
v 0.025891 0.028699 0.060696
v 0.053601 0.028699 0.060696
v 0.025891 0.024360 0.058355
v 0.053601 0.024360 0.058355
v 0.053601 0.024360 0.058355
v 0.025891 0.024360 0.058355
v 0.025891 0.028699 0.060696
v 0.053601 0.028699 0.060696
v 0.025891 0.024360 0.058355
v 0.053601 0.024360 0.058355
v 0.062136 0.017363 0.054580
vn -0.0000 0.4748 -0.8801
vt 0.294118 0.219608
vt 0.070588 0.219608
vt 0.294118 0.160784
vt 0.070588 0.160784
s 0
usemtl M_DisplayLoop
f 375/145/85 376/146/85 377/147/85
f 376/146/85 378/148/85 377/147/85
