# Blender 3.5.0
# www.blender.org
mtllib pizarron.mtl
o Cube
v 0.050000 1.500000 -3.000000
v 0.050000 0.000000 -3.000000
v 0.050000 1.500000 0.000000
v 0.050000 0.000000 0.000000
v 0.000000 1.500000 -3.000000
v 0.000000 0.000000 -3.000000
v 0.000000 1.500000 0.000000
v 0.000000 0.000000 0.000000
v 0.020998 1.447307 -2.947307
v 0.020998 0.052693 -2.947307
v 0.020998 1.447307 -0.052693
v 0.020998 0.052693 -0.052693
v 0.050000 1.500000 -3.000000
v 0.050000 0.000000 -3.000000
v 0.050000 1.500000 0.000000
v 0.050000 0.000000 0.000000
v 0.050000 1.453698 -2.953698
v 0.050000 0.046302 -2.953698
v 0.050000 1.453698 -0.046302
v 0.050000 0.046302 -0.046302
v 0.049283 0.000493 -2.805406
v 0.049283 0.029226 -2.805406
v 0.049283 0.000493 -3.000662
v 0.049283 0.029226 -3.000662
v 0.153379 0.000493 -2.805406
v 0.153379 0.029226 -2.805406
v 0.153379 0.000493 -3.000662
v 0.153379 0.029226 -3.000662
vn -0.0000 1.0000 -0.0000
vn -0.0000 -0.0000 1.0000
vn -1.0000 -0.0000 -0.0000
vn -0.0000 -1.0000 -0.0000
vn -0.0000 -0.0000 -1.0000
vn 1.0000 -0.0000 -0.0000
vn 0.2152 -0.0000 0.9766
vn 0.2152 -0.0000 -0.9766
vn 0.2152 -0.9766 -0.0000
vn 0.2152 0.9766 -0.0000
vt 0.000000 0.000000
vt 0.625000 0.500000
vt 0.000000 0.000000
vt 0.375000 0.500000
vt 0.000000 0.000000
vt 0.625000 0.750000
vt 0.000000 0.000000
vt 0.375000 0.750000
vt 0.875000 0.500000
vt 0.625000 0.250000
vt 0.125000 0.500000
vt 0.375000 0.250000
vt 0.875000 0.750000
vt 0.625000 1.000000
vt 0.625000 0.000000
vt 0.375000 0.000000
vt 0.375000 1.000000
vt 0.125000 0.750000
vt 0.616218 0.504391
vt 0.383782 0.504391
vt 0.616218 0.745609
vt 0.383782 0.745609
vt 0.000000 0.000000
vt 0.625000 0.500000
vt 0.000000 0.000000
vt 0.375000 0.500000
vt 0.000000 0.000000
vt 0.625000 0.750000
vt 0.000000 0.000000
vt 0.375000 0.750000
vt 0.617283 0.503859
vt 0.382717 0.503859
vt 0.617283 0.746142
vt 0.382717 0.746141
vt 0.375000 0.000000
vt 0.375000 1.000000
vt 0.125000 0.750000
vt 0.625000 0.000000
vt 0.625000 1.000000
vt 0.875000 0.750000
vt 0.125000 0.500000
vt 0.375000 0.250000
vt 0.625000 0.250000
vt 0.875000 0.500000
vt 0.375000 0.750000
vt 0.625000 0.750000
vt 0.375000 0.500000
vt 0.625000 0.500000
s 0
usemtl Material
f 5/9/1 3/6/1 1/2/1
f 3/6/2 8/17/2 4/8/2
f 7/15/3 6/12/3 8/16/3
f 2/4/4 8/18/4 6/11/4
f 3/5/1 16/29/1 15/27/1
f 5/10/5 2/4/5 6/12/5
f 9/19/6 12/22/6 10/20/6
f 2/3/1 13/23/1 14/25/1
f 4/8/1 14/26/1 16/30/1
f 1/2/1 15/28/1 13/24/1
f 18/32/6 13/24/6 17/31/6
f 19/33/6 16/30/6 20/34/6
f 17/31/6 15/28/6 19/33/6
f 20/34/6 14/26/6 18/32/6
f 9/19/7 18/32/7 17/31/7
f 11/21/8 20/34/8 12/22/8
f 9/19/9 19/33/9 11/21/9
f 10/20/10 20/34/10 18/32/10
f 22/38/3 23/42/3 21/35/3
f 24/43/5 27/47/5 23/42/5
f 28/48/6 25/45/6 27/47/6
f 26/46/2 21/36/2 25/45/2
f 27/47/4 21/37/4 23/41/4
f 24/44/1 26/46/1 28/48/1
f 5/9/1 7/13/1 3/6/1
f 3/6/2 7/14/2 8/17/2
f 7/15/3 5/10/3 6/12/3
f 2/4/4 4/8/4 8/18/4
f 3/5/1 4/7/1 16/29/1
f 5/10/5 1/2/5 2/4/5
f 9/19/6 11/21/6 12/22/6
f 2/3/1 1/1/1 13/23/1
f 4/8/1 2/4/1 14/26/1
f 1/2/1 3/6/1 15/28/1
f 18/32/6 14/26/6 13/24/6
f 19/33/6 15/28/6 16/30/6
f 17/31/6 13/24/6 15/28/6
f 20/34/6 16/30/6 14/26/6
f 9/19/7 10/20/7 18/32/7
f 11/21/8 19/33/8 20/34/8
f 9/19/9 17/31/9 19/33/9
f 10/20/10 12/22/10 20/34/10
f 22/38/3 24/43/3 23/42/3
f 24/43/5 28/48/5 27/47/5
f 28/48/6 26/46/6 25/45/6
f 26/46/2 22/39/2 21/36/2
f 27/47/4 25/45/4 21/37/4
f 24/44/1 22/40/1 26/46/1
