# Blender 3.4.1
# www.blender.org
mtllib vela.mtl
o mesh0
v -0.095209 0.121814 2.394170
v -0.187763 0.019739 3.328680
v -0.152365 -0.031499 2.400455
v -0.130608 0.173052 3.322400
v 0.067506 0.141280 2.399305
v -0.156143 0.210014 3.991990
v -0.213299 0.056701 3.998270
v 0.006572 0.229479 3.997120
v 0.032107 0.192518 3.327530
v 0.163398 0.017696 2.409780
v 0.127999 0.068934 3.338010
v 0.102464 0.105895 4.007595
v 0.045308 -0.047418 4.013880
v 0.070843 -0.084380 3.344290
v 0.106242 -0.135617 2.416065
v -0.091872 -0.103845 3.339160
v -0.117407 -0.066884 4.008750
v -0.213299 0.056701 3.998270
v -0.187763 0.019739 3.328680
v -0.152365 -0.031499 2.400455
v -0.056473 -0.155083 2.410935
v -0.070752 -0.189673 2.412300
v 0.128544 -0.164855 2.418530
v 0.199876 0.022425 2.410910
v 0.081785 0.175870 2.397940
v -0.117512 0.151052 2.391710
v -0.188843 -0.036228 2.399325
v -0.188843 -0.036228 2.399325
v -0.213299 0.056701 3.998270
v -0.055418 0.081298 4.002935
v -0.117407 -0.066884 4.008750
v -0.156143 0.210014 3.991990
v 0.045308 -0.047418 4.013880
v 0.006572 0.229479 3.997120
v 0.102464 0.105895 4.007595
v 0.128544 -0.164855 2.418530
v -0.070752 -0.189673 2.412300
v 0.005516 -0.006902 2.405120
v -0.188843 -0.036228 2.399325
v 0.199876 0.022425 2.410910
v -0.117512 0.151052 2.391710
v 0.081785 0.175870 2.397940
vn -0.9440 -0.3296 -0.0178
vn -0.9988 0.0303 -0.0397
vn -0.7614 0.6450 -0.0646
vn -0.4478 0.8917 -0.0663
vn 0.2095 0.9767 -0.0459
vn -0.7615 0.6450 -0.0645
vn -0.9439 -0.3296 -0.0178
vn 0.5508 0.8343 -0.0250
vn 0.9440 0.3296 0.0178
vn 0.9987 -0.0303 0.0398
vn 0.9440 0.3296 0.0176
vn 0.7615 -0.6450 0.0644
vn 0.5171 -0.8533 0.0668
vn 0.6170 -0.7841 0.0668
vn -0.4598 -0.8875 0.0314
vn -0.2095 -0.9767 0.0458
vn -0.3868 -0.9214 0.0361
vn -0.0381 0.0551 0.9978
vn -0.0380 0.0551 0.9978
vt 0.931152 1.002930
vt 0.995117 1.162110
vt 0.995117 1.002930
vt 0.931152 1.162110
vt 0.866699 1.002930
vt 0.931152 1.421390
vt 0.995117 1.421390
vt 0.866699 1.421390
vt 0.866699 1.162110
vt 0.802734 1.002930
vt 0.802734 1.162110
vt 0.802734 1.421390
vt 0.738770 1.421390
vt 0.738770 1.162110
vt 0.738770 1.002930
vt 0.674316 1.162110
vt 0.674316 1.421390
vt 0.614258 1.421390
vt 0.614258 1.162110
vt 0.614258 1.002930
vt 0.674316 1.002930
vt 0.972168 1.504640
vt 0.956055 1.477050
vt 0.939453 1.504640
vt 0.988770 1.477050
vt 0.922852 1.477050
vt 0.972168 1.449220
vt 0.939453 1.449220
vt 0.497070 1.646240
vt 0.556641 1.614990
vt 0.497070 1.580810
vt 0.556641 1.546630
vt 0.437256 1.614990
vt 0.497070 1.515380
vt 0.437256 1.546630
s 1
usemtl material_0.001
f 3/3/1 2/2/2 1/1/3
f 4/4/4 1/1/3 2/2/2
f 5/5/5 1/1/3 4/4/4
f 4/4/4 2/2/2 6/6/6
f 7/7/7 6/6/6 2/2/2
f 8/8/5 4/4/4 6/6/6
f 5/5/5 4/4/4 9/9/8
f 9/9/8 4/4/4 8/8/5
f 5/5/5 9/9/8 10/10/9
f 11/11/10 10/10/9 9/9/8
f 8/8/5 12/12/11 9/9/8
f 11/11/10 9/9/8 12/12/11
f 13/13/12 11/11/10 12/12/11
f 14/14/13 11/11/10 13/13/12
f 10/10/9 11/11/10 15/15/14
f 15/15/14 11/11/10 14/14/13
f 16/16/15 15/15/14 14/14/13
f 17/17/16 14/14/13 13/13/12
f 17/17/16 16/16/15 14/14/13
f 18/18/1 16/16/15 17/17/16
f 19/19/2 16/16/15 18/18/1
f 20/20/1 16/16/15 19/19/2
f 15/15/14 16/16/15 21/21/17
f 21/21/17 16/16/15 20/20/1
s 0
f 31/24/18 30/23/18 29/22/18
f 32/25/18 29/22/18 30/23/18
f 30/23/19 31/24/19 33/26/19
f 34/27/19 32/25/19 30/23/19
f 35/28/19 34/27/19 30/23/19
f 30/23/19 33/26/19 35/28/19
f 38/31/19 37/30/19 36/29/19
f 39/32/18 37/30/18 38/31/18
f 38/31/19 36/29/19 40/33/19
f 41/34/18 39/32/18 38/31/18
f 42/35/19 38/31/19 40/33/19
f 42/35/19 41/34/19 38/31/19
l 22 23
l 23 24
l 24 25
l 25 26
l 26 27
l 22 28
