# Blender v3.2.0 OBJ File: ''
# www.blender.org
mtllib Calle.mtl
g Vereda_Cube.001
v -4.064983 -0.162560 13.588859
v -4.064983 0.162560 13.588859
v -4.064983 -0.162560 -13.588859
v -4.064983 0.162560 -13.588859
v 4.064983 -0.162560 13.588859
v 4.064983 0.162560 13.588859
v 4.064983 -0.162560 -13.588859
v 4.064983 0.162560 -13.588859
v -2.027019 -0.162560 -13.588859
v -2.027019 0.162560 -13.588859
v -2.027019 -0.162560 13.588859
v -2.027019 0.162560 13.588859
v 2.085833 0.162560 -13.588859
v 2.085833 -0.162560 13.588859
v 2.085833 -0.162560 -13.588859
v 2.085833 0.162560 13.588859
v -2.027019 0.162560 -13.588859
v -2.027019 0.162560 13.588859
v -2.027019 -0.162560 -13.588859
v -2.027019 -0.162560 13.588859
v -1.952671 -0.162560 -13.588859
v -1.952671 -0.162560 13.588859
v 2.020989 -0.162560 13.588859
v -2.027019 0.162560 -13.588859
v -2.027019 0.162560 13.588859
v 2.020989 -0.162560 -13.588859
v 2.085833 0.162560 13.588859
v 2.085833 0.162560 -13.588859
vt 0.625000 0.000000
vt 0.375000 0.250000
vt 0.375000 0.000000
vt 0.625000 0.439140
vt 0.375000 0.500000
vt 0.375000 0.439140
vt 0.625000 0.500000
vt 0.375000 0.750000
vt 0.625000 0.937332
vt 0.375000 1.000000
vt 0.375000 0.937332
vt 0.314140 0.750000
vt 0.314140 0.500000
vt 0.875000 0.500000
vt 0.812332 0.750000
vt 0.812332 0.500000
vt 0.187668 0.500000
vt 0.125000 0.750000
vt 0.125000 0.500000
vt 0.625000 0.250000
vt 0.375000 0.312668
vt 0.625000 0.750000
vt 0.375000 0.810860
vt 0.685860 0.500000
vt 0.375000 0.937332
vt 0.625000 0.937332
vt 0.812332 0.750000
vt 0.812332 0.500000
vt 0.625000 0.312668
vt 0.375000 0.312668
vt 0.187668 0.750000
vt 0.187668 0.500000
vt 0.187668 0.750000
vt 0.812332 0.750000
vt 0.812332 0.500000
vt 0.187668 0.750000
vt 0.314140 0.500000
vt 0.685860 0.750000
vt 0.685860 0.500000
vt 0.685860 0.750000
vt 0.625000 1.000000
vt 0.875000 0.750000
vt 0.625000 0.312668
vt 0.625000 0.810860
vt 0.187668 0.500000
vt 0.314140 0.750000
vn -1.0000 0.0000 0.0000
vn 0.0000 0.0000 -1.0000
vn 1.0000 0.0000 0.0000
vn 0.0000 0.0000 1.0000
vn 0.0000 -1.0000 0.0000
vn 0.0000 1.0000 0.0000
usemtl None
s off
f 2/1/1 3/2/1 1/3/1
f 13/4/2 7/5/2 15/6/2
f 8/7/3 5/8/3 7/5/3
f 12/9/4 1/10/4 11/11/4
f 7/5/5 14/12/5 15/13/5
f 4/14/6 12/15/6 10/16/6
f 9/17/5 1/18/5 3/19/5
f 4/20/2 9/21/2 3/2/2
f 6/22/4 14/23/4 5/8/4
f 13/24/6 6/22/6 8/7/6
f 12/9/4 20/25/4 18/26/4
f 10/16/4 18/27/4 17/28/4
f 9/21/4 17/29/4 19/30/4
f 11/31/4 19/32/4 20/33/4
f 17/28/4 25/34/4 24/35/4
f 19/32/5 22/36/5 20/33/5
f 14/12/5 26/37/5 15/13/5
f 16/38/4 28/39/4 27/40/4
f 2/1/1 4/20/1 3/2/1
f 13/4/2 8/7/2 7/5/2
f 8/7/3 6/22/3 5/8/3
f 12/9/4 2/41/4 1/10/4
f 7/5/5 5/8/5 14/12/5
f 4/14/6 2/42/6 12/15/6
f 9/17/5 11/31/5 1/18/5
f 4/20/2 10/43/2 9/21/2
f 6/22/4 16/44/4 14/23/4
f 13/24/6 16/38/6 6/22/6
f 12/9/4 11/11/4 20/25/4
f 10/16/4 12/15/4 18/27/4
f 9/21/4 10/43/4 17/29/4
f 11/31/4 9/17/4 19/32/4
f 17/28/4 18/27/4 25/34/4
f 19/32/5 21/45/5 22/36/5
f 14/12/5 23/46/5 26/37/5
f 16/38/4 13/24/4 28/39/4
g Asfalto_Cube.002
v -2.027019 -0.162560 -13.588859
v -2.027019 -0.162560 13.588859
v 2.085833 -0.162560 13.588859
v 2.085833 -0.162560 -13.588859
vt 0.314140 0.500000
vt 0.187668 0.750000
vt 0.187668 0.500000
vt 0.314140 0.750000
vn 0.0000 -1.0000 0.0000
usemtl None
s off
f 32/47/7 30/48/7 29/49/7
f 32/47/7 31/50/7 30/48/7
g Cordon_Cube.003
v 2.085833 0.162560 -13.588859
v 2.085833 -0.162560 13.588859
v 2.085833 -0.162560 -13.588859
v 2.085833 0.162560 13.588859
v -2.027019 0.162560 -13.588859
v -2.027019 0.162560 13.588859
v -2.027019 -0.162560 -13.588859
v -2.027019 -0.162560 13.588859
v -1.952671 -0.162560 -13.588859
v -1.952671 -0.162560 13.588859
v 2.020989 -0.162560 13.588859
v -2.027019 0.162560 -13.588859
v -1.952671 0.090456 -13.588859
v -1.998567 0.157071 -13.588859
v -1.974447 0.141441 -13.588859
v -1.958331 0.118049 -13.588859
v -1.952671 0.090456 13.588859
v -2.027019 0.162560 13.588859
v -1.958331 0.118049 13.588859
v -1.974447 0.141441 13.588859
v -1.998567 0.157071 13.588859
v 2.020989 -0.162560 -13.588859
v 2.085833 0.162560 13.588859
v 2.020989 0.079280 13.588859
v 2.065795 0.158484 13.588859
v 2.047719 0.146655 13.588859
v 2.033373 0.128230 13.588859
v 2.024163 0.105015 13.588859
v 2.020989 0.079280 -13.588859
v 2.085833 0.162560 -13.588859
v 2.024163 0.105015 -13.588859
v 2.033373 0.128230 -13.588859
v 2.047719 0.146655 -13.588859
v 2.065795 0.158484 -13.588859
vt 0.625000 0.937332
vt 0.375000 0.937332
vt 0.569556 0.937332
vt 0.375000 0.312668
vt 0.625000 0.312668
vt 0.569556 0.312668
vt 0.625000 0.810860
vt 0.560962 0.810860
vt 0.375000 0.810860
vt 0.812332 0.750000
vt 0.812332 0.500000
vt 0.812332 0.500000
vt 0.812332 0.750000
vt 0.812332 0.500000
vt 0.000000 0.000000
vt 0.000000 0.000000
vt 0.000000 0.000000
vt 0.000000 0.000000
vt 0.000000 0.000000
vt 0.000000 0.000000
vt 0.000000 0.000000
vt 0.000000 0.000000
vt 0.000000 0.000000
vt 0.000000 0.000000
vt 0.625000 0.439140
vt 0.375000 0.439140
vt 0.560962 0.439140
vt 0.000000 0.000000
vt 0.000000 0.000000
vt 0.000000 0.000000
vt 0.685860 0.750000
vt 0.685860 0.500000
vt 0.685860 0.500000
vt 0.685860 0.750000
vt 0.685860 0.500000
vt 0.685860 0.750000
vt 0.685860 0.500000
vt 0.625000 0.937332
vt 0.375000 0.937332
vt 0.590773 0.937332
vt 0.608761 0.937332
vt 0.620780 0.937332
vt 0.625000 0.312668
vt 0.620780 0.312668
vt 0.608761 0.312668
vt 0.590773 0.312668
vt 0.375000 0.312668
vt 0.625000 0.810860
vt 0.621866 0.810860
vt 0.612770 0.810860
vt 0.598602 0.810860
vt 0.580751 0.810860
vt 0.375000 0.810860
vt 0.812332 0.750000
vt 0.000000 0.000000
vt 0.000000 0.000000
vt 0.625000 0.439140
vt 0.375000 0.439140
vt 0.580751 0.439140
vt 0.598603 0.439140
vt 0.612770 0.439140
vt 0.621866 0.439140
vt 0.000000 0.000000
vt 0.685860 0.750000
vn 0.0000 0.0000 1.0000
vn -0.0000 0.0000 -1.0000
vn 0.1894 0.9819 0.0000
vn 0.5438 0.8392 0.0000
vn 0.8235 0.5674 0.0000
vn 0.9796 0.2009 0.0000
vn 1.0000 0.0000 0.0000
vn -1.0000 0.0000 0.0000
vn -0.9925 0.1224 0.0000
vn -0.9295 0.3688 0.0000
vn -0.7890 0.6144 0.0000
vn -0.5476 0.8368 0.0000
vn -0.1993 0.9799 0.0000
vn -0.0001 0.0000 1.0000
vn 0.0001 0.0000 1.0000
vn 0.0001 0.0000 -1.0000
vn -0.0002 0.0000 1.0000
vn 0.8235 0.5673 0.0000
vn -0.0001 0.0000 -1.0000
usemtl None
s off
f 50/51/8 40/52/8 49/53/8
f 39/54/9 44/55/9 45/56/9
f 55/57/8 56/58/8 34/59/8
f 50/60/10 46/61/10 44/62/10
f 53/63/11 47/64/11 46/61/11
f 52/65/12 48/66/12 47/67/12
f 51/68/13 45/69/13 48/66/13
f 45/69/14 42/70/14 41/71/14
f 61/72/15 43/73/15 56/74/15
f 62/75/9 35/76/9 61/77/9
f 56/74/16 63/78/16 61/72/16
f 60/79/17 64/80/17 63/78/17
f 59/81/18 65/82/18 64/83/18
f 58/84/19 66/85/19 65/82/19
f 57/86/20 62/87/20 66/85/20
f 50/51/8 38/88/8 40/52/8
f 40/52/8 42/89/8 49/53/8
f 49/53/8 51/90/8 50/51/8
f 51/90/21 52/91/21 50/51/21
f 52/91/22 53/92/22 50/51/22
f 39/54/8 37/93/8 44/55/8
f 44/55/23 46/94/23 47/95/23
f 47/95/9 48/96/9 44/55/9
f 48/96/9 45/56/9 44/55/9
f 45/56/9 41/97/9 39/54/9
f 34/59/8 36/98/8 55/57/8
f 55/57/24 57/99/24 58/100/24
f 58/100/8 59/101/8 55/57/8
f 59/101/21 60/102/21 55/57/21
f 60/102/8 56/58/8 55/57/8
f 56/58/8 43/103/8 34/59/8
f 50/60/10 53/63/10 46/61/10
f 53/63/11 52/104/11 47/64/11
f 52/65/25 51/68/25 48/66/25
f 51/68/13 49/105/13 45/69/13
f 45/69/14 49/105/14 42/70/14
f 61/72/15 54/106/15 43/73/15
f 62/75/8 33/107/8 35/76/8
f 35/76/9 54/108/9 61/77/9
f 61/77/26 63/109/26 62/75/26
f 63/109/26 64/110/26 62/75/26
f 64/110/9 65/111/9 62/75/9
f 65/111/26 66/112/26 62/75/26
f 56/74/16 60/79/16 63/78/16
f 60/79/17 59/113/17 64/80/17
f 59/81/18 58/84/18 65/82/18
f 58/84/19 57/86/19 66/85/19
f 57/86/20 55/114/20 62/87/20
